# Blender v2.75 (sub 0) OBJ File: ''
# www.blender.org
mtllib testGun_000017.mtl
o Cube
v 1.461905 -0.520645 -0.113730
v 1.461905 -0.520645 0.113760
v -1.486431 -0.478685 0.113760
v -1.486431 -0.478685 -0.113730
v 1.475968 0.467485 -0.113730
v 1.475967 0.467486 0.113760
v -1.472369 0.509445 0.113760
v -1.472368 0.509445 -0.113730
vn -0.014200 -0.999900 0.000000
vn 0.014200 0.999900 0.000000
vn 0.999900 -0.014200 0.000000
vn -0.000000 0.000000 1.000000
vn -0.999900 0.014200 -0.000000
vn 0.000000 0.000000 -1.000000
usemtl Material
s off
f 2//1 3//1 4//1
f 8//2 7//2 6//2
f 5//3 6//3 2//3
f 6//4 7//4 3//4
f 3//5 7//5 8//5
f 1//6 4//6 8//6
f 1//1 2//1 4//1
f 5//2 8//2 6//2
f 1//3 5//3 2//3
f 2//4 6//4 3//4
f 4//5 3//5 8//5
f 5//6 1//6 8//6
