# Blender v2.75 (sub 0) OBJ File: ''
# www.blender.org
mtllib testGun_000038.mtl
o Cube
v 1.469573 -0.532642 -0.113726
v 1.469573 -0.532642 0.113765
v -1.478671 -0.484633 0.113765
v -1.478671 -0.484633 -0.113726
v 1.485664 0.455457 -0.113726
v 1.485662 0.455457 0.113765
v -1.462581 0.503466 0.113765
v -1.462581 0.503466 -0.113726
vn -0.016300 -0.999900 -0.000000
vn 0.016300 0.999900 0.000000
vn 0.999900 -0.016300 0.000000
vn -0.000000 0.000000 1.000000
vn -0.999900 0.016300 -0.000000
vn 0.000000 0.000000 -1.000000
usemtl Material
s off
f 2//1 3//1 4//1
f 8//2 7//2 6//2
f 5//3 6//3 2//3
f 6//4 7//4 3//4
f 3//5 7//5 8//5
f 1//6 4//6 8//6
f 1//1 2//1 4//1
f 5//2 8//2 6//2
f 1//3 5//3 2//3
f 2//4 6//4 3//4
f 4//5 3//5 8//5
f 5//6 1//6 8//6
