# Blender v2.75 (sub 0) OBJ File: ''
# www.blender.org
mtllib testGun_000018.mtl
o Cube
v 1.456463 -0.467280 -0.113732
v 1.456463 -0.467280 0.113758
v -1.490547 -0.565175 0.113758
v -1.490546 -0.565175 -0.113732
v 1.423654 0.520406 -0.113732
v 1.423652 0.520406 0.113759
v -1.523357 0.422511 0.113758
v -1.523356 0.422511 -0.113732
vn 0.033200 -0.999400 0.000000
vn -0.033200 0.999400 0.000000
vn 0.999400 0.033200 0.000000
vn -0.000000 0.000000 1.000000
vn -0.999400 -0.033200 -0.000000
vn 0.000000 0.000000 -1.000000
usemtl Material
s off
f 2//1 3//1 4//1
f 8//2 7//2 6//2
f 5//3 6//3 2//3
f 6//4 7//4 3//4
f 7//5 8//5 4//5
f 1//6 4//6 8//6
f 1//1 2//1 4//1
f 5//2 8//2 6//2
f 1//3 5//3 2//3
f 2//4 6//4 3//4
f 3//5 7//5 4//5
f 5//6 1//6 8//6
