# Blender v2.75 (sub 0) OBJ File: ''
# www.blender.org
mtllib testGun_000033.mtl
o Cube
v 1.444744 -0.528546 -0.113756
v 1.444744 -0.528546 0.113734
v -1.475107 -0.939537 0.113734
v -1.475107 -0.939537 -0.113756
v 1.307002 0.450038 -0.113756
v 1.307001 0.450037 0.113734
v -1.612851 0.039046 0.113734
v -1.612850 0.039047 -0.113756
vn 0.139400 -0.990200 0.000000
vn -0.139400 0.990200 0.000000
vn 0.990200 0.139400 0.000000
vn -0.000000 0.000000 1.000000
vn -0.990200 -0.139400 -0.000000
vn 0.000000 0.000000 -1.000000
usemtl Material
s off
f 2//1 3//1 4//1
f 8//2 7//2 6//2
f 5//3 6//3 2//3
f 6//4 7//4 3//4
f 7//5 8//5 4//5
f 1//6 4//6 8//6
f 1//1 2//1 4//1
f 5//2 8//2 6//2
f 1//3 5//3 2//3
f 2//4 6//4 3//4
f 3//5 7//5 4//5
f 5//6 1//6 8//6
