# Blender v2.75 (sub 0) OBJ File: ''
# www.blender.org
mtllib testGun_000009.mtl
o Cube
v 1.441874 -0.957005 -0.113745
v 1.441874 -0.957005 0.113745
v -1.338358 0.025215 0.113745
v -1.338357 0.025215 -0.113745
v 1.771064 -0.025215 -0.113745
v 1.771063 -0.025214 0.113745
v -1.009169 0.957005 0.113745
v -1.009168 0.957005 -0.113745
vn -0.333100 -0.942900 0.000000
vn 0.333100 0.942900 0.000000
vn 0.942900 -0.333100 0.000000
vn -0.000000 0.000000 1.000000
vn -0.942900 0.333100 -0.000000
vn 0.000000 0.000000 -1.000000
usemtl Material
s off
f 2//1 3//1 4//1
f 8//2 7//2 6//2
f 5//3 6//3 2//3
f 6//4 7//4 3//4
f 7//5 8//5 4//5
f 5//6 1//6 4//6
f 1//1 2//1 4//1
f 5//2 8//2 6//2
f 1//3 5//3 2//3
f 2//4 6//4 3//4
f 3//5 7//5 4//5
f 8//6 5//6 4//6
