# Blender v2.75 (sub 0) OBJ File: ''
# www.blender.org
mtllib testGun_000025.mtl
o Cube
v 1.307194 -0.486923 -0.113809
v 1.307194 -0.486923 0.113682
v -1.388607 -1.681538 0.113682
v -1.388607 -1.681537 -0.113809
v 0.906821 0.416571 -0.113808
v 0.906820 0.416570 0.113682
v -1.788981 -0.778044 0.113682
v -1.788980 -0.778044 -0.113809
vn 0.405100 -0.914300 0.000000
vn -0.405100 0.914300 -0.000000
vn 0.914300 0.405100 0.000000
vn -0.000000 -0.000000 1.000000
vn -0.914300 -0.405100 -0.000000
vn 0.000000 0.000000 -1.000000
usemtl Material
s off
f 2//1 3//1 4//1
f 8//2 7//2 6//2
f 5//3 6//3 2//3
f 6//4 7//4 3//4
f 3//5 7//5 8//5
f 1//6 4//6 8//6
f 1//1 2//1 4//1
f 5//2 8//2 6//2
f 1//3 5//3 2//3
f 2//4 6//4 3//4
f 4//5 3//5 8//5
f 5//6 1//6 8//6
