# Blender v2.75 (sub 0) OBJ File: ''
# www.blender.org
mtllib testGun_000032.mtl
o Cube
v 1.420057 -0.523839 -0.113771
v 1.420057 -0.523839 0.113720
v -1.461437 -1.149486 0.113720
v -1.461437 -1.149486 -0.113771
v 1.210373 0.441890 -0.113771
v 1.210371 0.441890 0.113720
v -1.671123 -0.183758 0.113720
v -1.671122 -0.183758 -0.113771
vn 0.212200 -0.977200 -0.000000
vn -0.212200 0.977200 0.000000
vn 0.977200 0.212200 0.000000
vn -0.000000 0.000000 1.000000
vn -0.977200 -0.212200 -0.000000
vn 0.000000 0.000000 -1.000000
usemtl Material
s off
f 2//1 3//1 4//1
f 8//2 7//2 6//2
f 5//3 6//3 2//3
f 6//4 7//4 3//4
f 7//5 8//5 4//5
f 1//6 4//6 8//6
f 1//1 2//1 4//1
f 5//2 8//2 6//2
f 1//3 5//3 2//3
f 2//4 6//4 3//4
f 3//5 7//5 4//5
f 5//6 1//6 8//6
