# Blender v2.75 (sub 0) OBJ File: ''
# www.blender.org
mtllib testGun_000028.mtl
o Cube
v 1.296624 -0.506790 -0.113814
v 1.296624 -0.506790 0.113676
v -1.379023 -1.745885 0.113676
v -1.379023 -1.745885 -0.113814
v 0.881344 0.389950 -0.113814
v 0.881342 0.389949 0.113676
v -1.794305 -0.849147 0.113676
v -1.794304 -0.849146 -0.113814
vn 0.420200 -0.907400 -0.000000
vn -0.420200 0.907400 0.000000
vn 0.907400 0.420200 0.000000
vn -0.000000 -0.000000 1.000000
vn -0.907400 -0.420200 -0.000000
vn -0.000000 0.000000 -1.000000
usemtl Material
s off
f 2//1 3//1 4//1
f 8//2 7//2 6//2
f 5//3 6//3 2//3
f 6//4 7//4 3//4
f 3//5 7//5 8//5
f 5//6 1//6 4//6
f 1//1 2//1 4//1
f 5//2 8//2 6//2
f 1//3 5//3 2//3
f 2//4 6//4 3//4
f 4//5 3//5 8//5
f 8//6 5//6 4//6
