# Blender v2.75 (sub 0) OBJ File: ''
# www.blender.org
mtllib testGun_000027.mtl
o Cube
v 1.289077 -0.506072 -0.113816
v 1.289077 -0.506072 0.113674
v -1.373791 -1.772399 0.113674
v -1.373790 -1.772399 -0.113816
v 0.864669 0.386384 -0.113816
v 0.864668 0.386383 0.113674
v -1.798199 -0.879944 0.113674
v -1.798198 -0.879944 -0.113816
vn 0.429500 -0.903100 0.000000
vn -0.429500 0.903100 0.000000
vn 0.903100 0.429500 0.000000
vn -0.000000 -0.000000 1.000000
vn -0.903100 -0.429500 -0.000000
vn 0.000000 0.000000 -1.000000
usemtl Material
s off
f 2//1 3//1 4//1
f 8//2 7//2 6//2
f 5//3 6//3 2//3
f 6//4 7//4 3//4
f 7//5 8//5 4//5
f 1//6 4//6 8//6
f 1//1 2//1 4//1
f 5//2 8//2 6//2
f 1//3 5//3 2//3
f 2//4 6//4 3//4
f 3//5 7//5 4//5
f 5//6 1//6 8//6
