# Blender v2.75 (sub 0) OBJ File: ''
# www.blender.org
mtllib testGun_000016.mtl
o Cube
v 1.465508 -0.587368 -0.113731
v 1.465508 -0.587368 0.113760
v -1.477596 -0.406856 0.113760
v -1.477596 -0.406856 -0.113731
v 1.526007 0.399009 -0.113731
v 1.526005 0.399009 0.113760
v -1.417099 0.579521 0.113760
v -1.417098 0.579521 -0.113731
vn -0.061200 -0.998100 -0.000000
vn 0.061200 0.998100 -0.000000
vn 0.998100 -0.061200 0.000000
vn -0.000000 0.000000 1.000000
vn -0.998100 0.061200 -0.000000
vn 0.000000 0.000000 -1.000000
usemtl Material
s off
f 2//1 3//1 4//1
f 8//2 7//2 6//2
f 5//3 6//3 2//3
f 6//4 7//4 3//4
f 3//5 7//5 8//5
f 1//6 4//6 8//6
f 1//1 2//1 4//1
f 5//2 8//2 6//2
f 1//3 5//3 2//3
f 2//4 6//4 3//4
f 4//5 3//5 8//5
f 5//6 1//6 8//6
