# Blender v2.75 (sub 0) OBJ File: ''
# www.blender.org
mtllib testGun_000002.mtl
o Cube
v 1.475900 -0.511455 -0.113745
v 1.475900 -0.511455 0.113745
v -1.472530 -0.476707 0.113745
v -1.472529 -0.476707 -0.113745
v 1.487546 0.476707 -0.113745
v 1.487545 0.476707 0.113745
v -1.460885 0.511455 0.113745
v -1.460884 0.511455 -0.113745
vn -0.011800 -0.999900 0.000000
vn 0.011800 0.999900 0.000000
vn 0.999900 -0.011800 0.000000
vn -0.000000 0.000000 1.000000
vn -0.999900 0.011800 -0.000000
vn 0.000000 0.000000 -1.000000
usemtl Material
s off
f 2//1 3//1 4//1
f 8//2 7//2 6//2
f 5//3 6//3 2//3
f 6//4 7//4 3//4
f 7//5 8//5 4//5
f 1//6 4//6 8//6
f 1//1 2//1 4//1
f 5//2 8//2 6//2
f 1//3 5//3 2//3
f 2//4 6//4 3//4
f 3//5 7//5 4//5
f 5//6 1//6 8//6
