# Blender v2.75 (sub 0) OBJ File: ''
# www.blender.org
mtllib testGun_000010.mtl
o Cube
v 1.443395 -0.948666 -0.113745
v 1.443395 -0.948666 0.113746
v -1.343446 0.014646 0.113746
v -1.343445 0.014645 -0.113745
v 1.766248 -0.014661 -0.113745
v 1.766246 -0.014661 0.113746
v -1.020594 0.948651 0.113746
v -1.020593 0.948651 -0.113745
vn -0.326700 -0.945100 -0.000000
vn 0.326700 0.945100 0.000000
vn 0.945100 -0.326700 0.000000
vn -0.000000 0.000000 1.000000
vn -0.945100 0.326700 -0.000000
vn 0.000000 0.000000 -1.000000
usemtl Material
s off
f 2//1 3//1 4//1
f 8//2 7//2 6//2
f 5//3 6//3 2//3
f 6//4 7//4 3//4
f 7//5 8//5 4//5
f 5//6 1//6 4//6
f 1//1 2//1 4//1
f 5//2 8//2 6//2
f 1//3 5//3 2//3
f 2//4 6//4 3//4
f 3//5 7//5 4//5
f 8//6 5//6 4//6
