# Blender v2.75 (sub 0) OBJ File: ''
# www.blender.org
mtllib zombie_000064.mtl
o Cube.006
v 0.382745 -1.332325 2.252426
v 0.382745 -1.281399 0.534178
v 0.382745 -1.667252 2.242499
v 0.382745 -1.616325 0.524251
v 0.763636 -1.332325 2.252426
v 0.763636 -1.281399 0.534178
v 0.763636 -1.667252 2.242499
v 0.763636 -1.616325 0.524251
vn -1.000000 0.000000 0.000000
vn 0.000000 -0.999600 -0.029600
vn 1.000000 0.000000 0.000000
vn 0.000000 0.999600 0.029600
vn 0.000000 -0.029600 0.999600
vn 0.000000 0.029600 -0.999600
usemtl None
s off
f 2//1 4//1 3//1
f 8//2 7//2 3//2
f 6//3 5//3 7//3
f 2//4 1//4 5//4
f 3//5 7//5 5//5
f 8//6 4//6 2//6
f 1//1 2//1 3//1
f 4//2 8//2 3//2
f 8//3 6//3 7//3
f 6//4 2//4 5//4
f 1//5 3//5 5//5
f 6//6 8//6 2//6
o Cube.005
v -0.755343 -1.368907 2.256600
v -0.755343 -1.296742 0.539113
v -0.755343 -1.703685 2.242533
v -0.755343 -1.631521 0.525046
v -0.374452 -1.368907 2.256600
v -0.374452 -1.296742 0.539113
v -0.374452 -1.703685 2.242533
v -0.374452 -1.631521 0.525046
vn -1.000000 -0.000000 0.000000
vn 0.000000 -0.999100 -0.042000
vn 1.000000 0.000000 0.000000
vn 0.000000 0.999100 0.042000
vn 0.000000 -0.042000 0.999100
vn 0.000000 0.042000 -0.999100
usemtl None
s off
f 12//7 11//7 9//7
f 16//8 15//8 11//8
f 16//9 14//9 13//9
f 10//10 9//10 13//10
f 11//11 15//11 13//11
f 16//12 12//12 10//12
f 10//7 12//7 9//7
f 12//8 16//8 11//8
f 15//9 16//9 13//9
f 14//10 10//10 13//10
f 9//11 11//11 13//11
f 14//12 16//12 10//12
o Cube.001
v -0.489736 -0.928205 -1.267809
v -0.489736 -0.894070 -2.246686
v -0.489736 -1.907081 -1.301943
v -0.489736 -1.872947 -2.280820
v 0.489736 -0.928205 -1.267809
v 0.489736 -0.894070 -2.246686
v 0.489736 -1.907081 -1.301943
v 0.489736 -1.872947 -2.280820
vn -1.000000 -0.000000 0.000000
vn 0.000000 -0.999400 -0.034900
vn 1.000000 -0.000000 0.000000
vn 0.000000 0.999400 0.034900
vn 0.000000 -0.034900 0.999400
vn 0.000000 0.034900 -0.999400
usemtl None
s off
f 20//13 19//13 17//13
f 24//14 23//14 19//14
f 22//15 21//15 23//15
f 18//16 17//16 21//16
f 19//17 23//17 21//17
f 24//18 20//18 18//18
f 18//13 20//13 17//13
f 20//14 24//14 19//14
f 24//15 22//15 23//15
f 22//16 18//16 21//16
f 17//17 19//17 21//17
f 22//18 24//18 18//18
o Cube
v 1.000000 -1.714480 0.663962
v 1.000000 -1.222105 0.681132
v -1.000000 -1.222105 0.681132
v -1.000000 -1.714480 0.663962
v 1.000000 -1.644780 -1.334823
v 0.999999 -1.152405 -1.317653
v -1.000000 -1.152405 -1.317653
v -1.000000 -1.644780 -1.334823
vn 0.000000 -0.034900 0.999400
vn -0.000000 0.034900 -0.999400
vn 1.000000 0.000000 -0.000000
vn -0.000000 0.999400 0.034900
vn -1.000000 -0.000000 0.000000
vn 0.000000 -0.999400 -0.034800
vn 0.000000 -0.999400 -0.034900
usemtl Material
s off
f 26//19 27//19 28//19
f 32//20 31//20 30//20
f 29//21 30//21 26//21
f 30//22 31//22 27//22
f 31//23 32//23 28//23
f 25//24 28//24 32//24
f 25//19 26//19 28//19
f 29//20 32//20 30//20
f 25//21 29//21 26//21
f 26//22 30//22 27//22
f 27//23 31//23 28//23
f 29//25 25//25 32//25
o Cube.003
v 1.008553 -1.335895 0.486337
v 1.008553 -1.309592 -1.232465
v 1.008553 -1.670930 0.481209
v 1.008553 -1.644626 -1.237592
v 1.389444 -1.335895 0.486337
v 1.389444 -1.309592 -1.232465
v 1.389444 -1.670930 0.481209
v 1.389444 -1.644626 -1.237592
vn -1.000000 0.000000 0.000000
vn 0.000000 -0.999900 -0.015300
vn 1.000000 -0.000000 0.000000
vn 0.000000 0.999900 0.015300
vn 0.000000 -0.015300 0.999900
vn 0.000000 0.015300 -0.999900
usemtl None
s off
f 36//26 35//26 33//26
f 40//27 39//27 35//27
f 38//28 37//28 39//28
f 34//29 33//29 37//29
f 35//30 39//30 37//30
f 40//31 36//31 34//31
f 34//26 36//26 33//26
f 36//27 40//27 35//27
f 40//28 38//28 39//28
f 38//29 34//29 37//29
f 33//30 35//30 37//30
f 38//31 40//31 34//31
o Cube.004
v -1.358736 -1.273755 0.497639
v -1.358736 -1.224781 -1.220666
v -1.358736 -1.608692 0.488093
v -1.358736 -1.559719 -1.230212
v -0.977845 -1.273755 0.497639
v -0.977845 -1.224781 -1.220666
v -0.977845 -1.608692 0.488093
v -0.977845 -1.559719 -1.230212
vn -1.000000 0.000000 0.000000
vn 0.000000 -0.999600 -0.028500
vn 1.000000 0.000000 0.000000
vn 0.000000 0.999600 0.028500
vn 0.000000 -0.028500 0.999600
vn 0.000000 0.028500 -0.999600
usemtl None
s off
f 42//32 44//32 43//32
f 48//33 47//33 43//33
f 46//34 45//34 47//34
f 42//35 41//35 45//35
f 43//36 47//36 45//36
f 48//37 44//37 42//37
f 41//32 42//32 43//32
f 44//33 48//33 43//33
f 48//34 46//34 47//34
f 46//35 42//35 45//35
f 41//36 43//36 45//36
f 46//37 48//37 42//37
